<?xml version="1.0" encoding="utf-8"?>
<!-- Generator: Adobe Illustrator 24.1.2, SVG Export Plug-In . SVG Version: 6.00 Build 0)  -->
<svg version="1.1" id="Capa_1" xmlns="http://www.w3.org/2000/svg" xmlns:xlink="http://www.w3.org/1999/xlink" x="0px" y="0px"
	 viewBox="0 0 512 512" style="enable-background:new 0 0 512 512;" xml:space="preserve">
<style type="text/css">
	.st0{fill:#05510A;}
</style>
<g>
	<path class="st0" d="M256,59.1c-91.7,0-166.3,74.6-166.3,166.3S164.3,391.8,256,391.8s166.3-74.6,166.3-166.3S347.7,59.1,256,59.1z
		 M256,361.7c-75.1,0-136.3-61.1-136.3-136.3S180.9,89.2,256,89.2s136.3,61.1,136.3,136.3S331.1,361.7,256,361.7z"/>
	<path class="st0" d="M416.1,66.3C373.4,23.6,316.5,0,256,0S138.6,23.6,95.9,66.3C53.1,109.1,29.6,166,29.6,226.4
		c0,106.7,74.6,198.8,178.2,221.3L256,512l48.2-64.3c103.6-22.4,178.2-114.6,178.2-221.3C482.4,166,458.9,109.1,416.1,66.3
		L416.1,66.3z M292.8,419.4l-5.7,1.1L256,461.9l-31.1-41.4l-5.7-1.1c-92.5-17.5-159.6-98.7-159.6-192.9
		c0-108.3,88.1-196.4,196.4-196.4s196.4,88.1,196.4,196.4C452.4,320.7,385.3,401.8,292.8,419.4L292.8,419.4z"/>
</g>
<circle class="st0" cx="256" cy="225.4" r="47.2"/>
</svg>
